<svg width="137" height="71" viewBox="0 0 137 71" fill="none" xmlns="http://www.w3.org/2000/svg">
<path d="M42.4198 53.0487C41.1434 49.393 38.5166 47.5648 34.5396 47.564H33.2848V70.1133H34.5396C37.6135 70.1133 39.8823 68.865 41.3461 66.3683C42.5793 64.2373 43.1959 61.5257 43.1959 58.2335C43.193 56.2753 42.9343 54.547 42.4198 53.0487Z" fill="white"/>
<path d="M20.8838 53.3189C22.1617 56.9745 24.788 58.8023 28.7629 58.8023H30.0177V36.2531H28.7629C25.689 36.2531 23.4201 37.5014 21.9564 39.9981C20.7268 42.1283 20.1117 44.8399 20.111 48.1328C20.111 50.0889 20.3686 51.8175 20.8838 53.3189Z" fill="white"/>
<path d="M0 0.240417H16.6978V6.21254H5.99408V9.1986H14.8864V14.8653H5.99408V17.8853H16.6978V23.8574H0V0.240417Z" fill="white"/>
<path d="M25.0951 0.212097H46.7001L35.8976 24.3381L25.0951 0.212097ZM35.8976 21.3521L44.8228 1.4676H27.0053L35.8976 21.3521Z" fill="white"/>
<path d="M55.3289 0.240417H72.0267V6.21254H61.323V9.1986H70.2153V14.8653H61.323V17.8853H72.0267V23.8574H55.3289V0.240417Z" fill="white"/>
<path d="M82.3023 23.8235V0.212097H83.5867L99.5929 16.2622V0.212097H100.811V23.8291L82.3023 23.8235Z" fill="white"/>
<path d="M118.3 23.8574V6.21254H109.638V0.240417H128.147V6.21254H119.485V23.8574H118.3Z" fill="white"/>
<path d="M9.8463 40.9596C11.2954 40.9596 12.4481 41.1858 13.3044 41.6382C14.2883 42.1327 15.1146 42.9063 15.6864 43.8681C16.2581 44.8299 16.5515 45.9398 16.532 47.0674C16.538 48.1545 16.2408 49.2204 15.6757 50.1383C15.1015 51.0798 14.2944 51.8469 13.3374 52.3609C14.5257 52.7927 15.5669 53.5707 16.3344 54.6005C17.131 55.6188 17.5615 56.8895 17.553 58.1973C17.5614 59.3403 17.2591 60.4628 16.6802 61.4379C16.1141 62.4062 15.3141 63.207 14.3583 63.7622C13.8509 64.043 13.3077 64.2486 12.7445 64.373C12.1517 64.5087 11.3613 64.5766 10.3733 64.5766H0.229431V40.9596H9.8463Z" fill="white"/>
<path d="M48.4621 62.8631C46.7385 61.3135 45.8877 58.9891 45.9097 55.8899H51.278C51.2561 57.1794 51.6293 58.1634 52.3978 58.8421C53.1662 59.5207 54.2421 59.86 55.6254 59.86C56.7671 59.86 57.6673 59.6678 58.326 59.2832C58.9847 58.8986 59.314 58.3105 59.314 57.5187C59.314 56.8627 58.9792 56.3876 58.3095 56.0935C57.67 55.8089 57.0017 55.5984 56.317 55.4658C55.6583 55.3414 55.2521 55.2659 55.0984 55.2396C53.6063 54.9552 52.1408 54.5389 50.7181 53.9954C49.5237 53.5378 48.4594 52.7796 47.6223 51.7897C46.7879 50.7944 46.3708 49.4823 46.3708 47.8536C46.3708 46.2248 46.7879 44.8392 47.6223 43.6968C48.4566 42.5544 49.5709 41.7005 50.9651 41.1349C52.42 40.5579 53.9677 40.2701 55.5266 40.2866C57.5246 40.2866 59.2536 40.6712 60.7137 41.4403C62.1738 42.2095 63.321 43.3745 64.1554 44.9354C64.5426 45.5955 64.7999 46.3276 64.9129 47.0901C64.9994 47.7594 65.0434 48.4339 65.0446 49.1091H59.6763C59.6763 47.8875 59.3579 46.9883 58.7212 46.4114C58.0845 45.8346 57.0964 45.5462 55.7571 45.5462C54.6812 45.5462 53.8469 45.7385 53.2541 46.123C52.6613 46.5076 52.3648 47.0279 52.3648 47.6839C52.3648 48.4078 52.7601 48.9394 53.5505 49.2787C54.5215 49.6741 55.5244 49.9807 56.5475 50.1949C58.5236 50.6021 60.066 50.9923 61.1748 51.3656C62.2926 51.7452 63.2889 52.4315 64.0566 53.3507C64.869 54.3008 65.2752 55.6354 65.2752 57.3547C65.2752 58.9834 64.836 60.386 63.9578 61.5623C63.0795 62.7386 61.9213 63.6379 60.4832 64.26C59.0063 64.8899 57.4214 65.2073 55.823 65.1931C52.6393 65.1893 50.1857 64.4127 48.4621 62.8631Z" fill="white"/>
<path d="M78.7783 64.5766V46.9317H70.1165V40.9596H88.6257V46.9317H79.964V64.5766H78.7783Z" fill="white"/>
<path d="M94.8504 40.9596H111.548V46.9317H100.844V49.9178H109.737V55.5845H100.844V58.6045H111.548V64.5766H94.8504V40.9596Z" fill="white"/>
<path d="M136.281 64.5766H118.661V40.9596H127.586C129.496 40.9596 131.055 41.3102 132.263 42.0115C133.417 42.6581 134.374 43.6211 135.029 44.794C135.691 45.9806 136.032 47.3279 136.017 48.6962C136.033 50.4142 135.475 52.0854 134.436 53.4298C133.441 54.7802 132.04 55.7527 130.451 56.1953L136.281 64.5766ZM119.879 43.0295V55.2112H128.344L119.879 43.0295ZM119.879 63.3211H133.975L129.167 56.4328L128.146 56.4667H119.879V63.3211ZM120.736 42.2151L129.694 55.1094C131.132 54.8131 132.425 54.0091 133.35 52.836C134.3 51.6807 134.815 50.2108 134.799 48.6962C134.812 47.5022 134.504 46.3278 133.91 45.303C133.317 44.2855 132.447 43.4709 131.407 42.9616C130.44 42.4639 129.178 42.2151 127.619 42.2151H120.736Z" fill="white"/>
</svg>
